<svg width="95" height="49" viewBox="0 0 95 49" fill="none" xmlns="http://www.w3.org/2000/svg">
<rect width="94.381" height="48.2857" rx="7.61905" fill="#4F4F4F"/>
<path d="M13.7316 33.1429V15.4113H17.4805V30.0519H25.0822V33.1429H13.7316ZM43.1688 24.2771C43.1688 26.2107 42.8023 27.8557 42.0692 29.2121C41.3419 30.5685 40.3492 31.6046 39.0909 32.3203C37.8383 33.0303 36.43 33.3853 34.8658 33.3853C33.29 33.3853 31.8759 33.0274 30.6233 32.3117C29.3708 31.596 28.3809 30.5599 27.6536 29.2035C26.9264 27.847 26.5627 26.2049 26.5627 24.2771C26.5627 22.3434 26.9264 20.6984 27.6536 19.342C28.3809 17.9856 29.3708 16.9524 30.6233 16.2424C31.8759 15.5267 33.29 15.1688 34.8658 15.1688C36.43 15.1688 37.8383 15.5267 39.0909 16.2424C40.3492 16.9524 41.3419 17.9856 42.0692 19.342C42.8023 20.6984 43.1688 22.3434 43.1688 24.2771ZM39.3679 24.2771C39.3679 23.0245 39.1803 21.9682 38.8051 21.1082C38.4357 20.2482 37.9134 19.596 37.238 19.1515C36.5627 18.7071 35.772 18.4848 34.8658 18.4848C33.9596 18.4848 33.1688 18.7071 32.4935 19.1515C31.8181 19.596 31.2929 20.2482 30.9177 21.1082C30.5483 21.9682 30.3636 23.0245 30.3636 24.2771C30.3636 25.5296 30.5483 26.5859 30.9177 27.4459C31.2929 28.3059 31.8181 28.9581 32.4935 29.4026C33.1688 29.847 33.9596 30.0693 34.8658 30.0693C35.772 30.0693 36.5627 29.847 37.238 29.4026C37.9134 28.9581 38.4357 28.3059 38.8051 27.4459C39.1803 26.5859 39.3679 25.5296 39.3679 24.2771ZM57.7034 21.1429C57.5822 20.7215 57.4119 20.3492 57.1926 20.026C56.9733 19.697 56.7049 19.4199 56.3874 19.1948C56.0757 18.9639 55.7178 18.7879 55.3138 18.6667C54.9155 18.5455 54.474 18.4848 53.9891 18.4848C53.0829 18.4848 52.2864 18.71 51.5995 19.1602C50.9184 19.6104 50.3874 20.2655 50.0064 21.1255C49.6255 21.9798 49.435 23.0245 49.435 24.2597C49.435 25.4949 49.6226 26.5454 49.9978 27.4113C50.373 28.2771 50.904 28.9379 51.5909 29.3939C52.2777 29.8442 53.0887 30.0693 54.0238 30.0693C54.8722 30.0693 55.5966 29.9192 56.1969 29.619C56.803 29.3131 57.2647 28.8831 57.5822 28.329C57.9054 27.7749 58.0671 27.1198 58.0671 26.3636L58.829 26.4762H54.2575V23.6537H61.6774V25.8874C61.6774 27.4459 61.3484 28.785 60.6904 29.9048C60.0324 31.0188 59.1262 31.8788 57.9718 32.4848C56.8174 33.0851 55.4956 33.3853 54.0064 33.3853C52.3441 33.3853 50.8838 33.0188 49.6255 32.2857C48.3672 31.5469 47.386 30.4993 46.6818 29.1429C45.9834 27.7807 45.6342 26.1645 45.6342 24.2944C45.6342 22.8571 45.8419 21.5758 46.2575 20.4502C46.6789 19.3189 47.2676 18.3607 48.0238 17.5758C48.7799 16.7908 49.6601 16.1934 50.6645 15.7835C51.6688 15.3737 52.7568 15.1688 53.9285 15.1688C54.9329 15.1688 55.8679 15.316 56.7337 15.6104C57.5995 15.899 58.3672 16.3088 59.0368 16.8398C59.7121 17.3708 60.2633 18.0029 60.6904 18.7359C61.1176 19.4632 61.3917 20.2655 61.5129 21.1429H57.7034ZM80.7878 24.2771C80.7878 26.2107 80.4213 27.8557 79.6883 29.2121C78.961 30.5685 77.9682 31.6046 76.7099 32.3203C75.4574 33.0303 74.049 33.3853 72.4848 33.3853C70.909 33.3853 69.4949 33.0274 68.2424 32.3117C66.9899 31.596 66 30.5599 65.2727 29.2035C64.5454 27.847 64.1818 26.2049 64.1818 24.2771C64.1818 22.3434 64.5454 20.6984 65.2727 19.342C66 17.9856 66.9899 16.9524 68.2424 16.2424C69.4949 15.5267 70.909 15.1688 72.4848 15.1688C74.049 15.1688 75.4574 15.5267 76.7099 16.2424C77.9682 16.9524 78.961 17.9856 79.6883 19.342C80.4213 20.6984 80.7878 22.3434 80.7878 24.2771ZM76.987 24.2771C76.987 23.0245 76.7994 21.9682 76.4242 21.1082C76.0548 20.2482 75.5324 19.596 74.8571 19.1515C74.1818 18.7071 73.391 18.4848 72.4848 18.4848C71.5786 18.4848 70.7878 18.7071 70.1125 19.1515C69.4372 19.596 68.9119 20.2482 68.5368 21.1082C68.1673 21.9682 67.9826 23.0245 67.9826 24.2771C67.9826 25.5296 68.1673 26.5859 68.5368 27.4459C68.9119 28.3059 69.4372 28.9581 70.1125 29.4026C70.7878 29.847 71.5786 30.0693 72.4848 30.0693C73.391 30.0693 74.1818 29.847 74.8571 29.4026C75.5324 28.9581 76.0548 28.3059 76.4242 27.4459C76.7994 26.5859 76.987 25.5296 76.987 24.2771Z" fill="black"/>
</svg>
