<svg width="20" height="auto" viewBox="0 0 36 50" fill="none" xmlns="http://www.w3.org/2000/svg">
<path d="M20.7661 25.3567L30.2509 42.9615C31.2734 44.8595 31.7847 45.8084 31.365 46.5113C30.9453 47.2141 29.8674 47.2141 27.7115 47.2141H7.53083C5.3771 47.2141 4.30024 47.2141 3.88045 46.5119C3.46067 45.8097 3.97048 44.8611 4.9901 42.9641L14.4532 25.3573C14.7046 24.8895 15.1927 24.5977 15.7238 24.5978L19.4967 24.5985C20.027 24.5986 20.5145 24.8898 20.7661 25.3567Z" fill="#38AEDE"/>
<path d="M33.1681 43.8413L33.8555 43.4709L33.1681 43.8413ZM21.1669 21.5658L20.4795 21.9362H20.4795L21.1669 21.5658ZM14.4996 21.5646L15.1874 21.9343L15.1874 21.9343L14.4996 21.5646ZM2.52491 43.8444L3.21274 44.2141H3.21274L2.52491 43.8444ZM14.8636 20.7755L14.1064 20.5849V20.5849L14.8636 20.7755ZM13.5083 14.4439L13.356 15.2098L13.356 15.2098L13.5083 14.4439ZM14.8829 15.8185L15.6488 15.6662V15.6662L14.8829 15.8185ZM20.7819 15.8185L20.0161 15.6662V15.6662L20.7819 15.8185ZM22.1565 14.4439L22.3089 15.2098L22.3089 15.2098L22.1565 14.4439ZM20.8014 20.7754L21.5586 20.5844L21.5586 20.5844L20.8014 20.7754ZM34.5196 48.1474L35.19 48.5478L34.5196 48.1474ZM33.8555 43.4709L21.8544 21.1955L20.4795 21.9362L32.4806 44.2117L33.8555 43.4709ZM21.5292 19.9062V16.5972H19.9674V19.9062H21.5292ZM22.9352 15.1912H23.7735V13.6295H22.9352V15.1912ZM23.7735 10.9323H11.8913V12.494H23.7735V10.9323ZM11.8913 15.1912H12.7296V13.6295H11.8913V15.1912ZM14.1357 16.5972V19.9081H15.6974V16.5972H14.1357ZM13.8118 21.1949L1.83709 43.4747L3.21274 44.2141L15.1874 21.9343L13.8118 21.1949ZM5.60701 49.7809H30.0876V48.2191H5.60701V49.7809ZM1.83709 43.4747C1.23108 44.6022 0.732315 45.5258 0.462405 46.2752C0.189288 47.0335 0.0728977 47.8201 0.508589 48.5489L1.84907 47.7475C1.77553 47.6245 1.71375 47.4098 1.93176 46.8045C2.15298 46.1902 2.58187 45.3879 3.21274 44.2141L1.83709 43.4747ZM5.60701 48.2191C4.27443 48.2191 3.36463 48.217 2.71888 48.1211C2.08249 48.0266 1.92261 47.8705 1.84907 47.7475L0.508589 48.5489C0.94428 49.2777 1.69217 49.5475 2.48941 49.6659C3.27729 49.7829 4.32696 49.7809 5.60701 49.7809V48.2191ZM14.1357 19.9081C14.1357 20.3837 14.1303 20.49 14.1064 20.5849L15.6209 20.9661C15.7028 20.6405 15.6974 20.3087 15.6974 19.9081H14.1357ZM15.1874 21.9343C15.3771 21.5814 15.5389 21.2917 15.6209 20.9661L14.1064 20.5849C14.0825 20.6798 14.0369 20.776 13.8118 21.1949L15.1874 21.9343ZM12.7296 15.1912C13.1735 15.1912 13.2814 15.195 13.356 15.2098L13.6607 13.6781C13.3972 13.6257 13.0987 13.6295 12.7296 13.6295V15.1912ZM15.6974 16.5972C15.6974 16.2282 15.7012 15.9296 15.6488 15.6662L14.1171 15.9709C14.1319 16.0454 14.1357 16.1533 14.1357 16.5972H15.6974ZM13.356 15.2098C13.7402 15.2862 14.0406 15.5866 14.1171 15.9709L15.6488 15.6662C15.4491 14.6624 14.6645 13.8777 13.6607 13.6781L13.356 15.2098ZM10.345 13.0617C10.345 13.3887 10.3387 13.894 10.5049 14.307C10.6007 14.5447 10.7646 14.7881 11.0367 14.9621C11.3027 15.1323 11.6017 15.1912 11.8913 15.1912V13.6295C11.8085 13.6295 11.8257 13.6129 11.8783 13.6466C11.9371 13.6841 11.9562 13.73 11.9537 13.7237C11.9463 13.7054 11.9295 13.648 11.9189 13.5212C11.9084 13.3969 11.9068 13.2503 11.9068 13.0617H10.345ZM11.8913 10.9323C11.6017 10.9323 11.3027 10.9912 11.0367 11.1613C10.7646 11.3354 10.6007 11.5787 10.5049 11.8165C10.3387 12.2295 10.345 12.7347 10.345 13.0617H11.9068C11.9068 12.8731 11.9084 12.7266 11.9189 12.6022C11.9295 12.4755 11.9463 12.4181 11.9537 12.3998C11.9562 12.3935 11.9371 12.4393 11.8783 12.4769C11.8257 12.5106 11.8085 12.494 11.8913 12.494V10.9323ZM25.3198 13.0617C25.3198 12.7347 25.3262 12.2295 25.1599 11.8165C25.0642 11.5787 24.9003 11.3354 24.6282 11.1613C24.3622 10.9912 24.0631 10.9323 23.7735 10.9323V12.494C23.8564 12.494 23.8392 12.5106 23.7865 12.4769C23.7278 12.4393 23.7086 12.3935 23.7112 12.3998C23.7186 12.4181 23.7353 12.4755 23.746 12.6022C23.7564 12.7266 23.7581 12.8731 23.7581 13.0617H25.3198ZM23.7735 15.1912C24.0631 15.1912 24.3622 15.1323 24.6282 14.9621C24.9003 14.7881 25.0642 14.5447 25.1599 14.307C25.3262 13.894 25.3198 13.3887 25.3198 13.0617H23.7581C23.7581 13.2503 23.7564 13.3969 23.746 13.5212C23.7353 13.648 23.7186 13.7054 23.7112 13.7237C23.7086 13.73 23.7278 13.6841 23.7865 13.6466C23.8392 13.6129 23.8564 13.6295 23.7735 13.6295V15.1912ZM21.5292 16.5972C21.5292 16.1533 21.533 16.0454 21.5478 15.9709L20.0161 15.6662C19.9637 15.9296 19.9674 16.2282 19.9674 16.5972H21.5292ZM22.9352 13.6295C22.5662 13.6295 22.2676 13.6257 22.0042 13.6781L22.3089 15.2098C22.3834 15.195 22.4913 15.1912 22.9352 15.1912V13.6295ZM21.5478 15.9709C21.6242 15.5866 21.9246 15.2862 22.3089 15.2098L22.0042 13.6781C21.0004 13.8777 20.2157 14.6624 20.0161 15.6662L21.5478 15.9709ZM21.8544 21.1955C21.6283 20.7759 21.5826 20.6795 21.5586 20.5844L20.0443 20.9664C20.1266 21.2926 20.2891 21.5828 20.4795 21.9362L21.8544 21.1955ZM19.9674 19.9062C19.9674 20.3077 19.962 20.6402 20.0443 20.9664L21.5586 20.5844C21.5346 20.4893 21.5292 20.3828 21.5292 19.9062H19.9674ZM32.4806 44.2117C33.1133 45.386 33.5434 46.1888 33.7655 46.8034C33.9844 47.4091 33.9226 47.624 33.8492 47.7471L35.19 48.5478C35.6257 47.8183 35.5084 47.0313 35.2343 46.2727C34.9634 45.523 34.4633 44.599 33.8555 43.4709L32.4806 44.2117ZM30.0876 49.7809C31.369 49.7809 32.4196 49.7829 33.2081 49.6658C34.0059 49.5473 34.7544 49.2773 35.19 48.5478L33.8492 47.7471C33.7757 47.8701 33.6158 48.0264 32.9787 48.121C32.3323 48.217 31.4215 48.2191 30.0876 48.2191V49.7809Z" fill="#D5DAEE"/>
<path d="M22.049 36.3108L24.2468 37.5797V40.1176L22.049 41.3865L19.8511 40.1176V37.5797L22.049 36.3108Z" fill="#D5DAEE"/>
<path d="M25.1724 42.1675L26.694 43.046V44.8029L25.1724 45.6814L23.6508 44.8029V43.046L25.1724 42.1675Z" fill="#D5DAEE"/>
<path d="M14.6306 0L16.8285 1.26892V3.80677L14.6306 5.0757L12.4328 3.80677V1.26892L14.6306 0Z" fill="#38AEDE"/>
<path d="M17.7542 5.85669L19.2757 6.73518V8.49215L17.7542 9.37063L16.2326 8.49215V6.73518L17.7542 5.85669Z" fill="#38AEDE"/>
</svg>
