<svg width="314" height="auto" viewBox="0 0 114 50" fill="none" xmlns="http://www.w3.org/2000/svg">
<path d="M21.4035 26.5401L30.2507 42.9614C31.2733 44.8594 31.7845 45.8084 31.3649 46.5112C30.9452 47.214 29.8672 47.214 27.7114 47.214H7.53071C5.37698 47.214 4.30011 47.214 3.88033 46.5118C3.46054 45.8096 3.97035 44.8611 4.98998 42.964L13.8157 26.5431C14.4596 25.345 15.7099 24.5978 17.07 24.598L18.1523 24.5982C19.5106 24.5984 20.7593 25.3442 21.4035 26.5401Z" fill="#38AEDE"/>
<path d="M33.1681 43.8413L33.8555 43.4709L33.1681 43.8413ZM21.1669 21.5658L20.4795 21.9362H20.4795L21.1669 21.5658ZM14.4996 21.5646L15.1874 21.9343L15.1874 21.9343L14.4996 21.5646ZM2.52491 43.8444L3.21274 44.2141H3.21274L2.52491 43.8444ZM14.8636 20.7755L14.1064 20.5849V20.5849L14.8636 20.7755ZM13.5083 14.4439L13.356 15.2098L13.356 15.2098L13.5083 14.4439ZM14.8829 15.8185L15.6488 15.6662V15.6662L14.8829 15.8185ZM20.7819 15.8185L20.0161 15.6662V15.6662L20.7819 15.8185ZM22.1565 14.4439L22.3089 15.2098L22.3089 15.2098L22.1565 14.4439ZM20.8014 20.7754L21.5586 20.5844L21.5586 20.5844L20.8014 20.7754ZM34.5196 48.1474L35.19 48.5478L34.5196 48.1474ZM33.8555 43.4709L21.8544 21.1955L20.4795 21.9362L32.4806 44.2117L33.8555 43.4709ZM21.5292 19.9062V16.5972H19.9674V19.9062H21.5292ZM22.9352 15.1912H23.7735V13.6295H22.9352V15.1912ZM23.7735 10.9323H11.8913V12.494H23.7735V10.9323ZM11.8913 15.1912H12.7296V13.6295H11.8913V15.1912ZM14.1357 16.5972V19.9081H15.6974V16.5972H14.1357ZM13.8118 21.1949L1.83709 43.4747L3.21274 44.2141L15.1874 21.9343L13.8118 21.1949ZM5.60701 49.7809H30.0876V48.2191H5.60701V49.7809ZM1.83709 43.4747C1.23108 44.6022 0.732315 45.5258 0.462405 46.2752C0.189288 47.0335 0.0728977 47.8201 0.508589 48.5489L1.84907 47.7475C1.77553 47.6245 1.71375 47.4098 1.93176 46.8045C2.15298 46.1902 2.58187 45.3879 3.21274 44.2141L1.83709 43.4747ZM5.60701 48.2191C4.27443 48.2191 3.36463 48.217 2.71888 48.1211C2.08249 48.0266 1.92261 47.8705 1.84907 47.7475L0.508589 48.5489C0.94428 49.2777 1.69217 49.5475 2.48941 49.6659C3.27729 49.7829 4.32696 49.7809 5.60701 49.7809V48.2191ZM14.1357 19.9081C14.1357 20.3837 14.1303 20.49 14.1064 20.5849L15.6209 20.9661C15.7028 20.6405 15.6974 20.3087 15.6974 19.9081H14.1357ZM15.1874 21.9343C15.3771 21.5814 15.5389 21.2917 15.6209 20.9661L14.1064 20.5849C14.0825 20.6798 14.0369 20.776 13.8118 21.1949L15.1874 21.9343ZM12.7296 15.1912C13.1735 15.1912 13.2814 15.195 13.356 15.2098L13.6607 13.6781C13.3972 13.6257 13.0987 13.6295 12.7296 13.6295V15.1912ZM15.6974 16.5972C15.6974 16.2282 15.7012 15.9296 15.6488 15.6662L14.1171 15.9709C14.1319 16.0454 14.1357 16.1533 14.1357 16.5972H15.6974ZM13.356 15.2098C13.7402 15.2862 14.0406 15.5866 14.1171 15.9709L15.6488 15.6662C15.4491 14.6624 14.6645 13.8777 13.6607 13.6781L13.356 15.2098ZM10.345 13.0617C10.345 13.3887 10.3387 13.894 10.5049 14.307C10.6007 14.5447 10.7646 14.7881 11.0367 14.9621C11.3027 15.1323 11.6017 15.1912 11.8913 15.1912V13.6295C11.8085 13.6295 11.8257 13.6129 11.8783 13.6466C11.9371 13.6841 11.9562 13.73 11.9537 13.7237C11.9463 13.7054 11.9295 13.648 11.9189 13.5212C11.9084 13.3969 11.9068 13.2503 11.9068 13.0617H10.345ZM11.8913 10.9323C11.6017 10.9323 11.3027 10.9912 11.0367 11.1613C10.7646 11.3354 10.6007 11.5787 10.5049 11.8165C10.3387 12.2295 10.345 12.7347 10.345 13.0617H11.9068C11.9068 12.8731 11.9084 12.7266 11.9189 12.6022C11.9295 12.4755 11.9463 12.4181 11.9537 12.3998C11.9562 12.3935 11.9371 12.4393 11.8783 12.4769C11.8257 12.5106 11.8085 12.494 11.8913 12.494V10.9323ZM25.3198 13.0617C25.3198 12.7347 25.3262 12.2295 25.1599 11.8165C25.0642 11.5787 24.9003 11.3354 24.6282 11.1613C24.3622 10.9912 24.0631 10.9323 23.7735 10.9323V12.494C23.8564 12.494 23.8392 12.5106 23.7865 12.4769C23.7278 12.4393 23.7086 12.3935 23.7112 12.3998C23.7186 12.4181 23.7353 12.4755 23.746 12.6022C23.7564 12.7266 23.7581 12.8731 23.7581 13.0617H25.3198ZM23.7735 15.1912C24.0631 15.1912 24.3622 15.1323 24.6282 14.9621C24.9003 14.7881 25.0642 14.5447 25.1599 14.307C25.3262 13.894 25.3198 13.3887 25.3198 13.0617H23.7581C23.7581 13.2503 23.7564 13.3969 23.746 13.5212C23.7353 13.648 23.7186 13.7054 23.7112 13.7237C23.7086 13.73 23.7278 13.6841 23.7865 13.6466C23.8392 13.6129 23.8564 13.6295 23.7735 13.6295V15.1912ZM21.5292 16.5972C21.5292 16.1533 21.533 16.0454 21.5478 15.9709L20.0161 15.6662C19.9637 15.9296 19.9674 16.2282 19.9674 16.5972H21.5292ZM22.9352 13.6295C22.5662 13.6295 22.2676 13.6257 22.0042 13.6781L22.3089 15.2098C22.3834 15.195 22.4913 15.1912 22.9352 15.1912V13.6295ZM21.5478 15.9709C21.6242 15.5866 21.9246 15.2862 22.3089 15.2098L22.0042 13.6781C21.0004 13.8777 20.2157 14.6624 20.0161 15.6662L21.5478 15.9709ZM21.8544 21.1955C21.6283 20.7759 21.5826 20.6795 21.5586 20.5844L20.0443 20.9664C20.1266 21.2926 20.2891 21.5828 20.4795 21.9362L21.8544 21.1955ZM19.9674 19.9062C19.9674 20.3077 19.962 20.6402 20.0443 20.9664L21.5586 20.5844C21.5346 20.4893 21.5292 20.3828 21.5292 19.9062H19.9674ZM32.4806 44.2117C33.1133 45.386 33.5434 46.1888 33.7655 46.8034C33.9844 47.4091 33.9226 47.624 33.8492 47.7471L35.19 48.5478C35.6257 47.8183 35.5084 47.0313 35.2343 46.2727C34.9634 45.523 34.4633 44.599 33.8555 43.4709L32.4806 44.2117ZM30.0876 49.7809C31.369 49.7809 32.4196 49.7829 33.2081 49.6658C34.0059 49.5473 34.7544 49.2773 35.19 48.5478L33.8492 47.7471C33.7757 47.8701 33.6158 48.0264 32.9787 48.121C32.3323 48.217 31.4215 48.2191 30.0876 48.2191V49.7809Z" fill="#F4F6FD"/>
<path d="M22.0491 36.3107L24.2469 37.5797V40.1175L22.0491 41.3864L19.8512 40.1175V37.5797L22.0491 36.3107Z" fill="#F4F6FD"/>
<path d="M25.1725 42.1673L26.6941 43.0458V44.8028L25.1725 45.6812L23.6509 44.8028V43.0458L25.1725 42.1673Z" fill="#F4F6FD"/>
<path d="M14.6306 0L16.8285 1.26892V3.80677L14.6306 5.0757L12.4328 3.80677V1.26892L14.6306 0Z" fill="#38AEDE"/>
<path d="M17.754 5.85657L19.2756 6.73505V8.49203L17.754 9.37051L16.2325 8.49203V6.73505L17.754 5.85657Z" fill="#38AEDE"/>
<path d="M50.8125 33.5956C49.5387 33.5956 48.387 33.3775 47.3574 32.9413C46.3453 32.505 45.5426 31.8768 44.9493 31.0567C44.356 30.2365 44.0506 29.268 44.0332 28.1512H47.9594C48.0118 28.9016 48.2735 29.4949 48.7447 29.9311C49.2333 30.3674 49.8964 30.5855 50.734 30.5855C51.5891 30.5855 52.2609 30.3848 52.7495 29.9835C53.2381 29.5647 53.4824 29.0237 53.4824 28.3606C53.4824 27.8197 53.3166 27.3747 52.9851 27.0257C52.6535 26.6767 52.2347 26.4062 51.7287 26.2143C51.2401 26.0049 50.5595 25.778 49.687 25.5337C48.5004 25.1847 47.5319 24.8444 46.7816 24.5129C46.0487 24.1639 45.4117 23.6491 44.8708 22.9685C44.3473 22.2705 44.0855 21.3457 44.0855 20.194C44.0855 19.1121 44.356 18.1698 44.897 17.3671C45.4379 16.5644 46.197 15.9536 47.1742 15.5348C48.1514 15.0986 49.2682 14.8804 50.5246 14.8804C52.4092 14.8804 53.9361 15.3429 55.1052 16.2677C56.2919 17.1751 56.9462 18.449 57.0684 20.0893H53.0374C53.0025 19.4611 52.732 18.9463 52.226 18.5449C51.7374 18.1261 51.083 17.9167 50.2629 17.9167C49.5474 17.9167 48.9715 18.1 48.5353 18.4664C48.1165 18.8329 47.9071 19.3651 47.9071 20.0631C47.9071 20.5517 48.0641 20.9618 48.3782 21.2933C48.7098 21.6074 49.1111 21.8692 49.5823 22.0786C50.0709 22.2705 50.7515 22.4974 51.624 22.7591C52.8106 23.1081 53.779 23.4571 54.5294 23.8061C55.2797 24.1551 55.9254 24.6787 56.4664 25.3767C57.0073 26.0747 57.2778 26.9908 57.2778 28.125C57.2778 29.1022 57.0248 30.0096 56.5187 30.8473C56.0127 31.6849 55.271 32.3567 54.2938 32.8627C53.3166 33.3513 52.1562 33.5956 50.8125 33.5956ZM62.3132 17.1838C61.6676 17.1838 61.1266 16.9832 60.6904 16.5818C60.2716 16.163 60.0622 15.6482 60.0622 15.0375C60.0622 14.4267 60.2716 13.9207 60.6904 13.5193C61.1266 13.1005 61.6676 12.8911 62.3132 12.8911C62.9589 12.8911 63.4911 13.1005 63.9099 13.5193C64.3462 13.9207 64.5643 14.4267 64.5643 15.0375C64.5643 15.6482 64.3462 16.163 63.9099 16.5818C63.4911 16.9832 62.9589 17.1838 62.3132 17.1838ZM64.1193 18.9114V33.4124H60.4548V18.9114H64.1193Z" fill="#F4F6FD"/>
<path d="M71.4044 30.507H77.4246V33.4124H67.7399V15.1422H71.4044V30.507ZM78.8115 26.1096C78.8115 24.6438 79.0994 23.3437 79.6753 22.2095C80.2686 21.0752 81.0626 20.2027 82.0572 19.592C83.0693 18.9812 84.1949 18.6758 85.4338 18.6758C86.5157 18.6758 87.458 18.8939 88.2607 19.3302C89.0809 19.7665 89.7353 20.3161 90.2239 20.9792V18.9114H93.9146V33.4124H90.2239V31.2922C89.7527 31.9728 89.0983 32.5399 88.2607 32.9936C87.4406 33.4299 86.4896 33.648 85.4076 33.648C84.1861 33.648 83.0693 33.3339 82.0572 32.7057C81.0626 32.0775 80.2686 31.1963 79.6753 30.062C79.0994 28.9103 78.8115 27.5928 78.8115 26.1096ZM90.2239 26.1619C90.2239 25.272 90.0494 24.5129 89.7004 23.8847C89.3514 23.239 88.8802 22.7504 88.2869 22.4189C87.6936 22.0699 87.0567 21.8954 86.3761 21.8954C85.6956 21.8954 85.0674 22.0611 84.4915 22.3927C83.9157 22.7242 83.4445 23.2128 83.0781 23.8585C82.7291 24.4867 82.5546 25.2371 82.5546 26.1096C82.5546 26.9821 82.7291 27.7499 83.0781 28.413C83.4445 29.0586 83.9157 29.5559 84.4915 29.9049C85.0848 30.254 85.713 30.4285 86.3761 30.4285C87.0567 30.4285 87.6936 30.2627 88.2869 29.9311C88.8802 29.5821 89.3514 29.0935 89.7004 28.4653C90.0494 27.8197 90.2239 27.0519 90.2239 26.1619ZM101.158 21.0316C101.629 20.3336 102.275 19.7665 103.095 19.3302C103.933 18.8939 104.884 18.6758 105.948 18.6758C107.187 18.6758 108.304 18.9812 109.299 19.592C110.311 20.2027 111.105 21.0752 111.681 22.2095C112.274 23.3263 112.57 24.6263 112.57 26.1096C112.57 27.5928 112.274 28.9103 111.681 30.062C111.105 31.1963 110.311 32.0775 109.299 32.7057C108.304 33.3339 107.187 33.648 105.948 33.648C104.866 33.648 103.915 33.4386 103.095 33.0198C102.292 32.5835 101.647 32.0251 101.158 31.3446V33.4124H97.4936V14.0428H101.158V21.0316ZM108.827 26.1096C108.827 25.2371 108.644 24.4867 108.278 23.8585C107.929 23.2128 107.458 22.7242 106.864 22.3927C106.288 22.0611 105.66 21.8954 104.98 21.8954C104.317 21.8954 103.688 22.0699 103.095 22.4189C102.519 22.7504 102.048 23.239 101.682 23.8847C101.333 24.5303 101.158 25.2894 101.158 26.1619C101.158 27.0344 101.333 27.7935 101.682 28.4391C102.048 29.0848 102.519 29.5821 103.095 29.9311C103.688 30.2627 104.317 30.4285 104.98 30.4285C105.66 30.4285 106.288 30.254 106.864 29.9049C107.458 29.5559 107.929 29.0586 108.278 28.413C108.644 27.7673 108.827 26.9995 108.827 26.1096Z" fill="#38AEDE"/>
</svg>
