<svg width="24" height="24" viewBox="0 0 24 24" fill="none" xmlns="http://www.w3.org/2000/svg">
<circle cx="12" cy="12" r="12" transform="rotate(-90 12 12)" fill="#2D9CDB" fill-opacity="0.1"/>
<path d="M12.7836 12.8539L8.8419 16.7957C8.56945 17.0681 8.1289 17.0681 7.85936 16.7957L7.20433 16.1406C6.93189 15.8682 6.93189 15.4277 7.20433 15.1581L9.99833 12.3641L7.20433 9.57011C6.93189 9.29766 6.93189 8.85711 7.20433 8.58757L7.85646 7.92675C8.1289 7.6543 8.56945 7.6543 8.839 7.92675L12.7807 11.8685C13.0561 12.1409 13.0561 12.5815 12.7836 12.8539ZM18.3485 11.8685L14.4067 7.92675C14.1343 7.6543 13.6937 7.6543 13.4242 7.92675L12.7691 8.58177C12.4967 8.85421 12.4967 9.29476 12.7691 9.56431L15.5602 12.3612L12.7662 15.1552C12.4938 15.4277 12.4938 15.8682 12.7662 16.1377L13.4213 16.7957C13.6937 17.0681 14.1343 17.0681 14.4038 16.7957L18.3456 12.8539C18.6209 12.5815 18.6209 12.1409 18.3485 11.8685Z" fill="#2F80ED" fill-opacity="0.8"/>
</svg>
