<svg width="22" height="22" viewBox="0 0 22 22" fill="none" xmlns="http://www.w3.org/2000/svg">
<path d="M11.0043 6.05879C8.27153 6.05879 6.06724 8.26309 6.06724 10.9959C6.06724 13.7287 8.27153 15.933 11.0043 15.933C13.7372 15.933 15.9415 13.7287 15.9415 10.9959C15.9415 8.26309 13.7372 6.05879 11.0043 6.05879ZM11.0043 14.2057C9.23833 14.2057 7.79458 12.7662 7.79458 10.9959C7.79458 9.22559 9.23403 7.78613 11.0043 7.78613C12.7747 7.78613 14.2141 9.22559 14.2141 10.9959C14.2141 12.7662 12.7704 14.2057 11.0043 14.2057ZM17.295 5.85684C17.295 6.49707 16.7793 7.0084 16.1434 7.0084C15.5032 7.0084 14.9918 6.49277 14.9918 5.85684C14.9918 5.2209 15.5075 4.70527 16.1434 4.70527C16.7793 4.70527 17.295 5.2209 17.295 5.85684ZM20.5649 7.02559C20.4918 5.48301 20.1395 4.1166 19.0094 2.99082C17.8836 1.86504 16.5172 1.5127 14.9747 1.43535C13.3848 1.34512 8.61958 1.34512 7.02974 1.43535C5.49146 1.5084 4.12505 1.86074 2.99497 2.98652C1.86489 4.1123 1.51685 5.47871 1.4395 7.02129C1.34927 8.61113 1.34927 13.3764 1.4395 14.9662C1.51255 16.5088 1.86489 17.8752 2.99497 19.001C4.12505 20.1268 5.48716 20.4791 7.02974 20.5564C8.61958 20.6467 13.3848 20.6467 14.9747 20.5564C16.5172 20.4834 17.8836 20.1311 19.0094 19.001C20.1352 17.8752 20.4875 16.5088 20.5649 14.9662C20.6551 13.3764 20.6551 8.61543 20.5649 7.02559ZM18.511 16.6721C18.1758 17.5143 17.527 18.1631 16.6805 18.5025C15.4129 19.0053 12.4051 18.8893 11.0043 18.8893C9.60356 18.8893 6.59145 19.001 5.32817 18.5025C4.48599 18.1674 3.83716 17.5186 3.49771 16.6721C2.99497 15.4045 3.11099 12.3967 3.11099 10.9959C3.11099 9.59512 2.99927 6.58301 3.49771 5.31973C3.83286 4.47754 4.48169 3.82871 5.32817 3.48926C6.59575 2.98652 9.60356 3.10254 11.0043 3.10254C12.4051 3.10254 15.4172 2.99082 16.6805 3.48926C17.5227 3.82441 18.1715 4.47324 18.511 5.31973C19.0137 6.5873 18.8977 9.59512 18.8977 10.9959C18.8977 12.3967 19.0137 15.4088 18.511 16.6721Z" fill="#F2F2F2"/>
</svg>
