<svg width="22" height="22" viewBox="0 0 22 22" fill="none" xmlns="http://www.w3.org/2000/svg">
<path d="M20.9937 5.96159C20.7538 5.05829 20.047 4.34688 19.1495 4.10545C17.5228 3.66675 11 3.66675 11 3.66675C11 3.66675 4.47711 3.66675 2.85037 4.10545C1.95291 4.34691 1.24609 5.05829 1.00619 5.96159C0.570312 7.59887 0.570312 11.0149 0.570312 11.0149C0.570312 11.0149 0.570312 14.4309 1.00619 16.0682C1.24609 16.9715 1.95291 17.6533 2.85037 17.8947C4.47711 18.3334 11 18.3334 11 18.3334C11 18.3334 17.5228 18.3334 19.1495 17.8947C20.047 17.6533 20.7538 16.9715 20.9937 16.0682C21.4296 14.4309 21.4296 11.0149 21.4296 11.0149C21.4296 11.0149 21.4296 7.59887 20.9937 5.96159V5.96159ZM8.8666 14.1164V7.9134L14.3184 11.015L8.8666 14.1164V14.1164Z" fill="#2471B5"/>
</svg>
