<svg width="22" height="16" viewBox="0 0 22 16" fill="none" xmlns="http://www.w3.org/2000/svg">
<path d="M20.9937 2.96134C20.7538 2.05804 20.047 1.34663 19.1495 1.10521C17.5228 0.666504 11 0.666504 11 0.666504C11 0.666504 4.47711 0.666504 2.85037 1.10521C1.95291 1.34667 1.24609 2.05804 1.00619 2.96134C0.570312 4.59862 0.570312 8.01466 0.570312 8.01466C0.570312 8.01466 0.570312 11.4307 1.00619 13.068C1.24609 13.9713 1.95291 14.653 2.85037 14.8945C4.47711 15.3332 11 15.3332 11 15.3332C11 15.3332 17.5228 15.3332 19.1495 14.8945C20.047 14.653 20.7538 13.9713 20.9937 13.068C21.4296 11.4307 21.4296 8.01466 21.4296 8.01466C21.4296 8.01466 21.4296 4.59862 20.9937 2.96134ZM8.8666 11.1162V4.91315L14.3184 8.01473L8.8666 11.1162Z" fill="#F2F2F2"/>
</svg>
