<svg width="24" height="24" viewBox="0 0 24 24" fill="none" xmlns="http://www.w3.org/2000/svg">
<circle cx="12" cy="12" r="12" fill="#F2F2F2"/>
<path d="M11.3685 13.3058L7.42675 9.36405C7.1543 9.09161 7.1543 8.65106 7.42675 8.38151L8.08177 7.72649C8.35421 7.45404 8.79476 7.45404 9.06431 7.72649L11.8583 10.5205L14.6523 7.72649C14.9248 7.45404 15.3653 7.45404 15.6348 7.72649L16.2957 8.37862C16.5681 8.65106 16.5681 9.09161 16.2957 9.36115L12.3539 13.3029C12.0815 13.5782 11.6409 13.5782 11.3685 13.3058ZM12.3539 18.8706L16.2957 14.9289C16.5681 14.6564 16.5681 14.2159 16.2957 13.9463L15.6406 13.2913C15.3682 13.0189 14.9277 13.0189 14.6581 13.2913L11.8612 16.0824L9.06721 13.2884C8.79476 13.016 8.35421 13.016 8.08467 13.2884L7.42675 13.9434C7.1543 14.2159 7.1543 14.6564 7.42675 14.926L11.3685 18.8677C11.6409 19.1431 12.0815 19.1431 12.3539 18.8706Z" fill="#BDBDBD"/>
</svg>
