<svg width="22" height="22" viewBox="0 0 22 22" fill="none" xmlns="http://www.w3.org/2000/svg">
<path d="M11.0043 6.05854C8.27153 6.05854 6.06724 8.26284 6.06724 10.9957C6.06724 13.7285 8.27153 15.9328 11.0043 15.9328C13.7372 15.9328 15.9415 13.7285 15.9415 10.9957C15.9415 8.26284 13.7372 6.05854 11.0043 6.05854ZM11.0043 14.2054C9.23833 14.2054 7.79458 12.766 7.79458 10.9957C7.79458 9.22534 9.23403 7.78589 11.0043 7.78589C12.7747 7.78589 14.2141 9.22534 14.2141 10.9957C14.2141 12.766 12.7704 14.2054 11.0043 14.2054V14.2054ZM17.295 5.85659C17.295 6.49683 16.7793 7.00815 16.1434 7.00815C15.5032 7.00815 14.9918 6.49253 14.9918 5.85659C14.9918 5.22065 15.5075 4.70503 16.1434 4.70503C16.7793 4.70503 17.295 5.22065 17.295 5.85659ZM20.5649 7.02534C20.4918 5.48276 20.1395 4.11636 19.0094 2.99058C17.8836 1.86479 16.5172 1.51245 14.9747 1.43511C13.3848 1.34487 8.61958 1.34487 7.02974 1.43511C5.49146 1.50815 4.12505 1.8605 2.99497 2.98628C1.86489 4.11206 1.51685 5.47847 1.4395 7.02104C1.34927 8.61089 1.34927 13.3761 1.4395 14.966C1.51255 16.5085 1.86489 17.875 2.99497 19.0007C4.12505 20.1265 5.48716 20.4789 7.02974 20.5562C8.61958 20.6464 13.3848 20.6464 14.9747 20.5562C16.5172 20.4832 17.8836 20.1308 19.0094 19.0007C20.1352 17.875 20.4875 16.5085 20.5649 14.966C20.6551 13.3761 20.6551 8.61519 20.5649 7.02534V7.02534ZM18.511 16.6718C18.1758 17.514 17.527 18.1628 16.6805 18.5023C15.4129 19.005 12.4051 18.889 11.0043 18.889C9.60356 18.889 6.59145 19.0007 5.32817 18.5023C4.48599 18.1671 3.83716 17.5183 3.49771 16.6718C2.99497 15.4042 3.11099 12.3964 3.11099 10.9957C3.11099 9.59487 2.99927 6.58276 3.49771 5.31948C3.83286 4.47729 4.48169 3.82847 5.32817 3.48901C6.59575 2.98628 9.60356 3.10229 11.0043 3.10229C12.4051 3.10229 15.4172 2.99058 16.6805 3.48901C17.5227 3.82417 18.1715 4.473 18.511 5.31948C19.0137 6.58706 18.8977 9.59487 18.8977 10.9957C18.8977 12.3964 19.0137 15.4085 18.511 16.6718Z" fill="#2471B5"/>
</svg>
