<svg width="24" height="24" viewBox="0 0 24 24" fill="none" xmlns="http://www.w3.org/2000/svg">
<circle cx="12" cy="12" r="12" fill="#2F80ED"/>
<path d="M11.3685 13.3059L7.42675 9.36411C7.1543 9.09167 7.1543 8.65112 7.42675 8.38157L8.08177 7.72655C8.35421 7.45411 8.79476 7.45411 9.06431 7.72655L11.8583 10.5205L14.6523 7.72655C14.9248 7.45411 15.3653 7.45411 15.6348 7.72655L16.2957 8.37868C16.5681 8.65112 16.5681 9.09167 16.2957 9.36121L12.3539 13.303C12.0815 13.5783 11.6409 13.5783 11.3685 13.3059ZM12.3539 18.8707L16.2957 14.9289C16.5681 14.6565 16.5681 14.2159 16.2957 13.9464L15.6406 13.2914C15.3682 13.0189 14.9276 13.0189 14.6581 13.2914L11.8612 16.0825L9.06721 13.2885C8.79476 13.016 8.35421 13.016 8.08467 13.2885L7.42675 13.9435C7.1543 14.2159 7.1543 14.6565 7.42675 14.926L11.3685 18.8678C11.6409 19.1431 12.0815 19.1431 12.3539 18.8707Z" fill="#F9FAFC"/>
</svg>
